<?xml version="1.0" encoding="utf-8"?>
<!-- Generator: Adobe Illustrator 16.0.3, SVG Export Plug-In . SVG Version: 6.00 Build 0)  -->
<!DOCTYPE svg PUBLIC "-//W3C//DTD SVG 1.1//EN" "http://www.w3.org/Graphics/SVG/1.1/DTD/svg11.dtd">
<svg version="1.1" id="Layer_1" xmlns="http://www.w3.org/2000/svg" xmlns:xlink="http://www.w3.org/1999/xlink" x="0px" y="0px"
	 width="6733px" height="3688px" viewBox="0 0 6733 3688" enable-background="new 0 0 6733 3688" xml:space="preserve">
<g transform="translate(0.000000,3688.000000) scale(0.100000,-0.100000)">
	<path d="M47739.996,36109c-3055-114.004-5975-1006.008-8550-2612c-2137-1333-3979.004-3134.006-5352-5232.004
		c-265.996-407-678-1097-678-1135c0-7,49.004-102.996,109.004-214.004c828.996-1536.992,1446.992-3167.996,1795.996-4740.996
		c25.996-114.998,49.004-219.002,52.004-229.998c3.992-12.002,25,55,55,169.998c532,2063,1492,3907.004,2872.996,5515
		c525,610.996,1209.004,1270.996,1830,1765C41999,31085.992,44524,32094,47199.996,32319c450.996,37.998,639.004,45,1170,45
		s724.004-7.002,1170-45c1440-121.006,2879.004-481.006,4205-1052.002C55854,30359,57715.992,28915.992,59127,27097.996
		c1474.996-1902.004,2414.996-4138.996,2733.992-6510l22.008-167.998h1885h1885l-7.008,77.998
		c-11.992,136.006-56,500-86.992,717.002c-335,2352.998-1142,4592.002-2387,6619.998
		C62130.992,29530.992,60791.996,31049,59234.996,32299c-3104.004,2493-6940.996,3835-10920,3818.992
		C48112,36117.992,47853.004,36112.992,47739.996,36109z"/>
	<path fill="#0089F3" d="M15694.999,36084c-2429.003-250-4634.003-937-6719.003-2092
		c-2118.994-1173-4000-2810.002-5463.994-4754.004c-2121-2818-3315-6157.004-3472.002-9707.998c-12.998-290.996-12.998-1180,0-1470
		c134-3032.002,1016.002-5892.002,2602.998-8440C4330,6912,6742.998,4707.001,9582.002,3279.999
		c1432.998-720.996,2865.996-1214.004,4432.998-1525c522.997-104.004,1292.001-215.996,1732.997-250.996l82.002-7.002v1888.994
		v1889.004l-182.002,22.998c-2377.997,297.998-4685.995,1260-6599.999,2751.005C8320,8614.998,7650.996,9252.996,7055,9949.998
		c-1622.002,1894.004-2689.004,4185-3089.004,6630c-37.998,230-85.996,574.004-85.996,615v25h5930h5929.999v1575v1575H9810H3880v25
		c0,44.004,49.004,395,90.996,644.004C4322.998,23167,5180,25175.992,6475,26914.996
		c1064.004,1429.004,2390,2630.996,3922.002,3552.998c1577.002,950,3405.996,1589.004,5197.997,1817.002
		c115.996,15,215.996,29.004,222.998,30.996c9.004,3.008,12.002,390.006,12.002,1894.004c0,1039.004-0.996,1889.004-2.002,1889.004
		C15825.995,36097.992,15767.001,36092,15694.999,36084z"/>
	<path d="M18940,34166v-1885.008l42.996-5.996c23-2.998,128-17.002,232.004-30.996c795-104.004,1657.996-305,2449.004-568.008
		c2706.99-900.996,5072.996-2640.996,6746.99-4962.996c1151.006-1597.004,1934.004-3400,2313.008-5327.998
		c51.992-265.996,95.996-532.998,125.996-760c12.002-87.998,22.998-170,25.996-182.002l4.004-22.998h1885
		c1037.002,0,1884.998,2.998,1884.998,7.998c0,4.004-14.004,129.004-30,277.002C34107,25269,31815.994,29422,28214.998,32310.992
		c-2555.996,2052-5665,3344.004-8894.998,3699.004c-150.996,16-299.004,32.004-327.004,36l-52.996,5V34166z"/>
	<path fill="#0089F3" d="M31085.994,17270.994c-2.998-5,3.008-100.996,14.004-211.992c190-1905,685.996-3745,1477.002-5479.004
		c120-262.002,305-640.996,310.996-635c2.996,2.998,54.004-87.998,114.004-202.998
		c1000.996-1901.006,2335-3596.005,3938.992-5002.001c2799.004-2454.004,6260-3930.996,9959.004-4250
		c460.996-39.004,732.004-50.996,1310-57.002c997.004-10,1730,37.002,2655,167.998
		c3515.996,498.008,6772.004,2059.004,9400,4509.004c242,225.996,769.004,760,987,1000
		c2508.996,2770.996,4038.996,6189.003,4422.996,9882.002c14.008,132.002,25,247.002,25,253.994
		c0,12.002-295.992,14.004-1890,14.004h-1890l-4-22.002c-2.992-12.998-15-98.994-26-192.998c-11.992-92.998-36.992-267.002-55-385
		c-270-1717.002-876.992-3380-1784.996-4885c-442.996-735-921.992-1380.996-1539.004-2075
		c-182.988-205.996-763.992-790-970.996-975.996c-922.996-831.005-1875-1490-2941.992-2038.007
		c-1351.004-695-2834.004-1162.998-4328.008-1365c-124.004-16.992-241.992-32.998-261.992-35.996l-38.008-5v5849.999v5850h-1570
		h-1570v-5850.996V5277.997l-51.992,7.002c-1626.004,204.004-3048.008,632.002-4468.008,1340.996
		c-1282.996,642.001-2430,1463.007-3459.004,2479.003c-852.996,842.002-1530.996,1702.002-2135,2707.998
		c-840.996,1401.006-1401.992,2892.002-1705.996,4532.002c-37.996,207.002-110.996,690.996-125,835
		c-4.004,35.996-9.004,72.998-10.996,82.998c-5,16.006-104.004,17.002-1894.004,17.002
		C31872,17279.998,31089.002,17275.994,31085.994,17270.994z"/>
	<path d="M30599.998,15557.996c0-22.998-117.002-460.996-180.996-675.996c-826.006-2792.002-2548.008-5262.998-4894.004-7022.998
		C23784.998,6552.997,21777,5690.995,19635,5329.999c-125.996-20.996-320-50-430-64.004c-110-15-215-28.994-232.004-31.992
		l-32.996-5v-1885v-1885l47.996,5.996c26.008,2.998,171.008,19.004,322.004,35c3487,380.996,6817.996,1850,9484.002,4184.004
		C29367.996,6185.995,29972,6792,30472,7367c680.996,783.994,1295,1632.001,1825,2522.998c60,102.002,125,212.998,143.994,247.002
		l34.004,62.002L32377,10387c-785,1505-1360,3135.996-1687.002,4782.002c-32.002,162.998-62.002,316.992-65,343.994
		C30617.996,15555.994,30599.998,15589.998,30599.998,15557.996z"/>
</g>
</svg>
