<?xml version="1.0"?>
<svg version="1.1" xmlns="http://www.w3.org/2000/svg" xmlns:xlink="http://www.w3.org/1999/xlink" width="664" height="452">
    <desc iVinci="yes" version="4.6" gridStep="20" showGrid="no" snapToGrid="no" codePlatform="0"/>
    <g id="Layer1" name="Layer 1" opacity="1">
        <g id="Shape1">
            <desc shapeID="1" type="0" basicInfo-basicType="0" basicInfo-roundedRectRadius="12" basicInfo-polygonSides="6" basicInfo-starPoints="5" bounding="rect(-166.253,-197.972,332.505,395.943)" text="" font-familyName="" font-pixelSize="20" font-bold="0" font-underline="0" font-alignment="1" strokeStyle="0" markerStart="0" markerEnd="0" shadowEnabled="0" shadowOffsetX="0" shadowOffsetY="2" shadowBlur="4" shadowOpacity="160" blurEnabled="0" blurRadius="4" transform="matrix(1,0,0,1,486.163,226.114)" pers-center="0,0" pers-size="0,0" pers-start="0,0" pers-end="0,0" locked="0" mesh="" flag=""/>
            <path id="shapePath1" d="M370.73,28.142 L370.216,31.7396 C375.196,32.5871 378.637,37.2263 377.918,42.2571 C377.199,47.2879 372.601,50.7527 367.583,50.1711 L366.283,59.2695 C371.263,60.1169 374.704,64.7562 373.985,69.7869 C373.266,74.8177 368.667,78.2826 363.65,77.7009 L362.395,86.4864 C367.374,87.3331 370.819,91.9471 370.1,96.9778 C369.381,102.009 364.779,105.499 359.761,104.918 L358.461,114.016 C363.441,114.863 366.885,119.477 366.167,124.508 C365.448,129.538 360.849,133.003 355.832,132.422 L354.532,141.52 C359.511,142.367 362.952,147.007 362.233,152.037 C361.515,157.068 356.916,160.533 351.898,159.951 L350.598,169.05 C355.578,169.896 359.023,174.51 358.304,179.541 C357.585,184.572 352.983,188.062 347.965,187.481 L346.665,196.58 C351.645,197.426 355.089,202.04 354.371,207.071 C353.652,212.102 349.053,215.567 344.035,214.985 L342.736,224.083 C347.715,224.931 351.156,229.57 350.437,234.601 C349.718,239.632 345.12,243.096 340.102,242.515 L338.802,251.613 C343.782,252.46 347.226,257.074 346.508,262.105 C345.789,267.135 341.187,270.625 336.169,270.045 L334.869,279.143 C339.849,279.99 343.293,284.604 342.574,289.634 C341.856,294.665 337.257,298.13 332.239,297.548 L331.003,306.204 C335.982,307.051 339.423,311.69 338.704,316.721 C337.986,321.752 333.387,325.217 328.369,324.635 L327.114,333.421 C332.094,334.267 335.538,338.881 334.82,343.912 C334.101,348.943 329.498,352.433 324.481,351.852 L323.181,360.95 C328.161,361.797 331.605,366.411 330.886,371.442 C330.167,376.473 325.569,379.937 320.551,379.356 L319.911,383.84 L328.514,385.069 C330.144,381.283 334.014,378.805 338.286,379.416 C342.558,380.026 345.6,383.491 346.111,387.583 L356.043,389.002 C357.674,385.216 361.544,382.739 365.816,383.349 C370.088,383.959 373.11,387.422 373.615,391.513 L383.234,392.887 C384.871,389.102 388.761,386.627 393.033,387.237 C397.305,387.848 400.327,391.31 400.832,395.401 L410.764,396.82 C412.394,393.034 416.265,390.557 420.537,391.167 C424.809,391.777 427.851,395.243 428.361,399.335 L438.294,400.754 C439.924,396.968 443.794,394.49 448.067,395.1 C452.339,395.711 455.36,399.173 455.865,403.264 L465.798,404.683 C467.434,400.898 471.324,398.423 475.596,399.034 C479.869,399.644 482.89,403.106 483.395,407.197 L493.328,408.616 C494.958,404.831 498.828,402.353 503.1,402.963 C507.372,403.574 510.414,407.039 510.925,411.131 L520.857,412.55 C522.488,408.764 526.358,406.286 530.63,406.896 C534.902,407.507 537.944,410.972 538.455,415.064 L548.361,416.479 C549.997,412.694 553.888,410.219 558.16,410.83 C562.432,411.44 565.454,414.903 565.958,418.993 L575.891,420.413 C577.521,416.627 581.391,414.149 585.664,414.759 C589.936,415.37 592.977,418.835 593.488,422.927 L601.596,424.085 L602.278,419.314 C598.137,417.875 595.374,413.826 596.017,409.322 C596.661,404.818 600.447,401.705 604.825,401.483 L606.207,391.811 C602.068,390.366 599.307,386.296 599.95,381.792 C600.594,377.289 604.381,374.175 608.759,373.953 L610.096,364.594 C605.955,363.154 603.192,359.105 603.835,354.601 C604.479,350.098 608.269,346.963 612.647,346.736 L613.966,337.507 C609.825,336.067 607.062,332.018 607.705,327.515 C608.349,323.011 612.136,319.898 616.513,319.675 L617.895,310.003 C613.756,308.559 610.995,304.489 611.639,299.985 C612.282,295.481 616.069,292.368 620.447,292.145 L621.828,282.473 C617.688,281.034 614.925,276.985 615.568,272.481 C616.212,267.977 620.001,264.843 624.38,264.616 L625.762,254.944 C621.622,253.504 618.858,249.455 619.501,244.951 C620.145,240.448 623.932,237.334 628.309,237.112 L629.691,227.44 C625.552,225.995 622.791,221.925 623.435,217.421 C624.078,212.918 627.865,209.805 632.243,209.582 L633.625,199.91 C629.484,198.47 626.721,194.421 627.364,189.918 C628.008,185.414 631.798,182.28 636.176,182.052 L637.558,172.38 C633.418,170.941 630.654,166.892 631.298,162.388 C631.941,157.884 635.728,154.771 640.106,154.548 L641.487,144.876 C637.348,143.432 634.587,139.362 635.231,134.858 C635.874,130.354 639.661,127.241 644.039,127.019 L645.376,117.659 C641.236,116.22 638.472,112.171 639.116,107.667 C639.759,103.164 643.549,100.029 647.927,99.8016 L649.309,90.1297 C645.169,88.6901 642.406,84.641 643.049,80.1373 C643.692,75.6336 647.482,72.4992 651.861,72.2718 L652.416,68.3874 L644.882,67.3109 C643.96,72.2029 639.384,75.5968 634.409,74.8859 C629.433,74.175 626.015,69.6391 626.502,64.685 L617.352,63.3776 C616.432,68.2698 611.881,71.6673 606.905,70.9564 C601.929,70.2455 598.487,65.706 598.972,60.7517 L589.822,59.4443 C588.902,64.3366 584.351,67.734 579.375,67.0231 C574.4,66.3122 570.982,61.7762 571.469,56.8221 L562.318,55.5148 C561.397,60.4068 556.821,63.8007 551.845,63.0898 C546.87,62.3789 543.452,57.843 543.939,52.8889 L534.788,51.5815 C533.868,56.4737 529.317,59.8711 524.342,59.1602 C519.366,58.4494 515.924,53.9099 516.409,48.9556 L507.259,47.6482 C506.339,52.5404 501.787,55.9378 496.812,55.227 C491.836,54.5161 488.418,49.9801 488.905,45.026 L479.755,43.7187 C478.836,48.6115 474.259,52.0047 469.282,51.2937 C464.305,50.5827 460.888,46.0473 461.375,41.0927 L452.225,39.7854 C451.306,44.6782 446.755,48.0751 441.778,47.3641 C436.802,46.6531 433.358,42.114 433.846,37.1594 L425.008,35.8968 C424.089,40.7896 419.538,44.1865 414.561,43.4755 C409.585,42.7645 406.141,38.2254 406.629,33.2708 L397.504,31.9672 C396.585,36.8601 392.008,40.2532 387.031,39.5422 C382.055,38.8312 378.637,34.2958 379.125,29.3413 L370.73,28.1419 L370.73,28.142 L370.73,28.142 Z" style="stroke:none;fill-rule:evenodd;fill:#000000;fill-opacity:1;"/>
        </g>
        <g id="Shape2">
            <desc shapeID="2" type="0" basicInfo-basicType="0" basicInfo-roundedRectRadius="12" basicInfo-polygonSides="6" basicInfo-starPoints="5" bounding="rect(-164.855,-196.308,329.711,392.616)" text="" font-familyName="" font-pixelSize="20" font-bold="0" font-underline="0" font-alignment="1" strokeStyle="0" markerStart="0" markerEnd="0" shadowEnabled="0" shadowOffsetX="0" shadowOffsetY="2" shadowBlur="4" shadowOpacity="160" blurEnabled="0" blurRadius="4" transform="matrix(1,0,0,1,484.745,224.223)" pers-center="0,0" pers-size="0,0" pers-start="0,0" pers-end="0,0" locked="0" mesh="" flag=""/>
            <path id="shapePath2" d="M370.282,27.9149 L369.773,31.4823 C374.71,32.3226 378.122,36.9229 377.41,41.9114 C376.697,46.8999 372.137,50.3356 367.162,49.7588 L365.873,58.7807 C370.81,59.6211 374.222,64.2213 373.509,69.2098 C372.797,74.1983 368.237,77.6341 363.261,77.0573 L362.017,85.769 C366.954,86.6085 370.37,91.1837 369.657,96.1722 C368.945,101.161 364.381,104.622 359.405,104.046 L358.116,113.067 C363.054,113.907 366.47,118.482 365.757,123.471 C365.044,128.459 360.484,131.895 355.509,131.318 L354.22,140.34 C359.158,141.18 362.569,145.781 361.857,150.769 C361.144,155.758 356.584,159.193 351.609,158.617 L350.32,167.639 C355.257,168.478 358.673,173.053 357.96,178.042 C357.247,183.03 352.684,186.491 347.708,185.915 L346.419,194.937 C351.357,195.777 354.773,200.352 354.06,205.34 C353.347,210.329 348.787,213.764 343.812,213.188 L342.523,222.21 C347.461,223.05 350.872,227.65 350.16,232.639 C349.447,237.627 344.887,241.063 339.912,240.486 L338.623,249.508 C343.56,250.348 346.976,254.923 346.263,259.911 C345.551,264.9 340.987,268.361 336.011,267.785 L334.722,276.807 C339.66,277.646 343.076,282.221 342.363,287.21 C341.65,292.198 337.09,295.634 332.115,295.057 L330.889,303.64 C335.826,304.48 339.238,309.08 338.526,314.069 C337.813,319.057 333.253,322.493 328.277,321.916 L327.033,330.628 C331.971,331.467 335.386,336.043 334.673,341.031 C333.961,346.02 329.397,349.48 324.421,348.904 L323.133,357.926 C328.07,358.766 331.486,363.341 330.773,368.33 C330.06,373.318 325.5,376.754 320.525,376.177 L319.89,380.623 L328.42,381.842 C330.037,378.088 333.875,375.631 338.111,376.236 C342.347,376.842 345.363,380.278 345.87,384.335 L355.719,385.742 C357.335,381.988 361.173,379.531 365.409,380.137 C369.646,380.742 372.642,384.175 373.142,388.232 L382.681,389.595 C384.304,385.841 388.161,383.387 392.398,383.993 C396.634,384.598 399.63,388.031 400.131,392.088 L409.98,393.495 C411.596,389.741 415.434,387.284 419.67,387.889 C423.907,388.494 426.923,391.931 427.429,395.988 L437.278,397.395 C438.895,393.641 442.732,391.184 446.969,391.789 C451.205,392.395 454.201,395.828 454.702,399.885 L464.551,401.292 C466.173,397.538 470.031,395.084 474.267,395.69 C478.503,396.295 481.5,399.728 482,403.785 L491.849,405.192 C493.466,401.438 497.304,398.981 501.54,399.586 C505.776,400.191 508.792,403.628 509.299,407.685 L519.148,409.092 C520.764,405.338 524.602,402.881 528.838,403.486 C533.075,404.092 536.091,407.528 536.597,411.585 L546.42,412.989 C548.043,409.235 551.901,406.781 556.137,407.387 C560.373,407.992 563.369,411.425 563.87,415.482 L573.719,416.889 C575.335,413.135 579.173,410.678 583.409,411.283 C587.646,411.888 590.662,415.325 591.168,419.382 L599.208,420.531 L599.884,415.8 C595.778,414.372 593.038,410.357 593.676,405.892 C594.314,401.426 598.069,398.339 602.41,398.118 L603.78,388.527 C599.675,387.095 596.938,383.059 597.576,378.593 C598.214,374.127 601.969,371.04 606.31,370.82 L607.636,361.539 C603.531,360.112 600.79,356.096 601.428,351.631 C602.067,347.165 605.824,344.057 610.166,343.831 L611.474,334.68 C607.368,333.253 604.628,329.237 605.266,324.772 C605.904,320.306 609.659,317.219 614,316.998 L615.37,307.407 C611.265,305.975 608.528,301.939 609.166,297.473 C609.804,293.007 613.559,289.92 617.9,289.7 L619.27,280.109 C615.165,278.682 612.425,274.666 613.063,270.201 C613.701,265.735 617.459,262.627 621.8,262.401 L623.171,252.81 C619.065,251.383 616.325,247.368 616.963,242.902 C617.601,238.436 621.356,235.349 625.697,235.129 L627.067,225.538 C622.962,224.106 620.225,220.07 620.863,215.604 C621.501,211.138 625.256,208.051 629.597,207.83 L630.967,198.239 C626.862,196.812 624.122,192.797 624.76,188.331 C625.398,183.865 629.156,180.757 633.497,180.532 L634.868,170.941 C630.762,169.513 628.022,165.498 628.66,161.033 C629.298,156.567 633.053,153.48 637.394,153.259 L638.764,143.668 C634.659,142.236 631.922,138.2 632.56,133.734 C633.198,129.268 636.953,126.181 641.294,125.961 L642.62,116.68 C638.515,115.253 635.774,111.238 636.412,106.772 C637.05,102.306 640.808,99.1978 645.15,98.9723 L646.52,89.3816 C642.415,87.9542 639.674,83.9391 640.312,79.4732 C640.951,75.0074 644.709,71.8993 649.05,71.6738 L649.601,67.8221 L642.13,66.7546 C641.216,71.6056 636.679,74.9709 631.745,74.266 C626.811,73.5611 623.422,69.0633 623.905,64.1508 L614.831,62.8544 C613.919,67.7055 609.406,71.0744 604.472,70.3695 C599.539,69.6646 596.125,65.1632 596.606,60.2506 L587.533,58.9542 C586.621,63.8053 582.108,67.1741 577.174,66.4692 C572.24,65.7643 568.851,61.2665 569.334,56.354 L560.26,55.0576 C559.347,59.9086 554.809,63.2739 549.875,62.569 C544.942,61.8641 541.552,57.3663 542.035,52.4538 L532.962,51.1574 C532.049,56.0085 527.536,59.3774 522.603,58.6725 C517.669,57.9676 514.255,53.4662 514.737,48.5536 L505.663,47.2572 C504.751,52.1083 500.238,55.4771 495.304,54.7722 C490.371,54.0674 486.981,49.5695 487.464,44.657 L478.391,43.3607 C477.479,48.2124 472.94,51.5771 468.006,50.872 C463.071,50.167 459.682,45.6697 460.166,40.7568 L451.092,39.4604 C450.181,44.3122 445.668,47.6805 440.733,46.9755 C435.798,46.2704 432.384,41.7694 432.867,36.8566 L424.104,35.6045 C423.193,40.4563 418.68,43.8246 413.745,43.1196 C408.81,42.4145 405.395,37.9135 405.879,33.0007 L396.831,31.708 C395.92,36.5597 391.381,39.9244 386.446,39.2193 C381.512,38.5143 378.123,34.017 378.606,29.1041 L370.282,27.9149 Z" style="stroke:none;fill-rule:evenodd;fill:#f9f3c8;fill-opacity:1;"/>
        </g>
        <g id="Shape3">
            <desc shapeID="3" type="0" basicInfo-basicType="0" basicInfo-roundedRectRadius="12" basicInfo-polygonSides="6" basicInfo-starPoints="5" bounding="rect(-145.078,-175.512,290.155,351.025)" text="" font-familyName="" font-pixelSize="20" font-bold="0" font-underline="0" font-alignment="1" strokeStyle="0" markerStart="0" markerEnd="0" shadowEnabled="0" shadowOffsetX="0" shadowOffsetY="2" shadowBlur="4" shadowOpacity="160" blurEnabled="0" blurRadius="4" transform="matrix(1,0,0,1,486.246,224.903)" pers-center="0,0" pers-size="0,0" pers-start="0,0" pers-end="0,0" locked="0" mesh="" flag=""/>
            <path id="shapePath3" d="M386.319,49.3905 L631.323,84.3951 L586.172,400.415 L341.168,365.411 L386.319,49.3905 Z" style="stroke:none;fill-rule:evenodd;fill:#ebe7d6;fill-opacity:1;"/>
        </g>
        <g id="Shape4">
            <desc shapeID="4" type="0" basicInfo-basicType="0" basicInfo-roundedRectRadius="12" basicInfo-polygonSides="6" basicInfo-starPoints="5" bounding="rect(-128.544,-128.544,257.089,257.089)" text="" font-familyName="" font-pixelSize="20" font-bold="0" font-underline="0" font-alignment="1" strokeStyle="0" markerStart="0" markerEnd="0" shadowEnabled="0" shadowOffsetX="0" shadowOffsetY="2" shadowBlur="4" shadowOpacity="160" blurEnabled="0" blurRadius="4" transform="matrix(1,0,0,1,446.432,248.877)" pers-center="0,0" pers-size="0,0" pers-start="0,0" pers-end="0,0" locked="0" mesh="" flag=""/>
            <path id="shapePath4" d="M464.611,121.64 C394.376,111.605 329.229,160.464 319.194,230.699 C309.16,300.933 358.019,366.081 428.253,376.115 C498.488,386.15 563.635,337.291 573.67,267.056 C583.704,196.822 534.846,131.674 464.611,121.64 M464.105,125.181 C532.38,134.936 579.883,198.276 570.128,266.55 C560.374,334.825 497.034,382.328 428.759,372.574 C360.485,362.819 312.981,299.479 322.736,231.205 C332.49,162.93 395.83,115.427 464.105,125.181 Z" style="stroke:none;fill-rule:evenodd;fill:#000000;fill-opacity:0.333333;"/>
        </g>
        <g id="Shape5">
            <desc shapeID="5" type="0" basicInfo-basicType="0" basicInfo-roundedRectRadius="12" basicInfo-polygonSides="6" basicInfo-starPoints="5" bounding="rect(-164.415,-164.415,328.83,328.83)" text="" font-familyName="" font-pixelSize="20" font-bold="0" font-underline="0" font-alignment="1" strokeStyle="0" markerStart="0" markerEnd="0" shadowEnabled="0" shadowOffsetX="0" shadowOffsetY="2" shadowBlur="4" shadowOpacity="160" blurEnabled="0" blurRadius="4" transform="matrix(1,0,0,1,443.738,250.903)" pers-center="0,0" pers-size="0,0" pers-start="0,0" pers-end="0,0" locked="0" mesh="" flag=""/>
            <path id="shapePath5" d="M466.979,88.1587 C377.144,75.3237 293.829,137.831 280.994,227.666 C268.159,317.5 330.64,400.811 420.475,413.646 C510.31,426.481 593.647,364.004 606.482,274.169 C619.317,184.334 556.813,100.994 466.979,88.1587 M466.473,91.7003 C554.347,104.255 615.469,185.785 602.914,273.659 C590.359,361.534 508.856,422.66 420.981,410.105 C333.106,397.55 271.98,316.046 284.536,228.172 C297.091,140.297 378.598,79.1453 466.473,91.7003 Z" style="stroke:none;fill-rule:evenodd;fill:#000000;fill-opacity:0.333333;"/>
        </g>
        <g id="Shape6">
            <desc shapeID="6" type="0" basicInfo-basicType="0" basicInfo-roundedRectRadius="12" basicInfo-polygonSides="6" basicInfo-starPoints="5" bounding="rect(-167.686,-113.725,335.372,227.451)" text="" font-familyName="" font-pixelSize="20" font-bold="0" font-underline="0" font-alignment="1" strokeStyle="0" markerStart="0" markerEnd="0" shadowEnabled="0" shadowOffsetX="0" shadowOffsetY="2" shadowBlur="4" shadowOpacity="160" blurEnabled="0" blurRadius="4" transform="matrix(1,0,0,1,179.27,268.511)" pers-center="0,0" pers-size="0,0" pers-start="0,0" pers-end="0,0" locked="0" mesh="" flag=""/>
            <path id="shapePath6" d="M273.418,154.83 C267.056,154.588 260.06,155.319 252.857,157.507 C242.316,160.71 232.206,169.795 221.778,180.554 C219.464,182.941 217.15,185.408 214.797,187.917 C213.459,189.342 212.135,190.685 210.78,192.125 L229.524,186.674 C228.985,187.204 228.533,187.758 227.994,188.3 L232.393,186.961 C240.958,178.624 249.382,171.924 258.117,169.27 C272.53,164.89 285.578,166.528 295.125,169.27 L308.322,165.445 C308.322,165.445 306.709,165.195 304.975,164.871 L306.314,164.393 C306.314,164.393 292.501,155.553 273.418,154.83 M227.994,188.3 L209.537,193.56 C195.022,208.937 179.36,224.411 160.671,230.09 C140.424,236.242 123.501,229.186 103.867,223.492 L84.167,229.038 C115.044,232.684 136.209,249.221 163.922,240.8 C189.263,233.101 209.056,207.305 227.994,188.3 M84.167,229.038 C84.053,229.025 83.8986,229.051 83.7844,229.038 L103.388,223.3 C99.7977,222.256 96.1115,221.381 92.2954,220.527 C91.1006,220.263 89.8836,219.996 88.6616,219.762 C75.3677,217.188 60.3862,216.475 42.09,221.483 C27.7309,225.414 18.8194,231.564 11.5842,238.41 L14.2619,249.216 L18.3739,248.068 C25.3483,242.038 34.3202,236.813 47.3496,233.246 C60.0893,229.758 71.1398,229.154 81.2024,229.899 L84.167,229.038 L84.167,229.038 M286.232,197.289 C279.871,197.048 272.97,197.683 265.767,199.871 C255.227,203.074 245.116,212.159 234.688,222.918 C232.374,225.305 230.06,227.867 227.707,230.377 C226.369,231.801 225.045,233.145 223.69,234.585 L242.434,229.134 C241.895,229.663 241.348,230.122 240.808,230.664 L245.207,229.421 C253.772,221.084 262.292,214.288 271.027,211.634 C285.44,207.254 298.488,208.891 308.035,211.634 L321.232,207.904 C321.232,207.904 319.619,207.558 317.885,207.235 L319.224,206.852 C319.224,206.852 305.316,198.013 286.232,197.289 M240.808,230.664 L222.351,235.923 C207.836,251.301 192.27,266.775 173.58,272.454 C153.334,278.605 136.411,271.55 116.777,265.855 L96.9813,271.497 C127.859,275.144 149.119,291.68 176.832,283.26 C202.173,275.56 221.87,249.669 240.808,230.664 M96.9813,271.497 C96.8674,271.484 96.8086,271.415 96.6944,271.402 L116.298,265.76 C112.708,264.716 108.926,263.744 105.11,262.891 C103.915,262.627 102.698,262.36 101.476,262.126 C88.1821,259.552 73.2962,258.934 55,263.943 C39.4449,268.201 30.0321,274.939 22.5816,282.495 L25.2593,293.11 C25.6401,292.724 25.8216,292.247 26.2155,291.867 L31.1883,290.432 C38.1626,284.401 47.2301,279.272 60.2596,275.705 C72.9992,272.218 84.0497,271.518 94.1124,272.263 L96.9813,271.497 M299.142,239.653 C292.781,239.412 285.88,240.046 278.677,242.235 C268.136,245.438 258.026,254.523 247.598,265.282 C245.284,267.669 242.874,270.231 240.521,272.741 C239.183,274.165 237.859,275.508 236.505,276.948 L255.344,271.497 C254.805,272.027 254.258,272.486 253.718,273.028 L258.117,271.784 C266.682,263.448 275.106,256.651 283.841,253.997 C298.254,249.618 311.398,251.255 320.945,253.997 L334.047,250.268 C334.047,250.268 332.529,249.922 330.795,249.598 L332.134,249.216 C332.134,249.216 318.226,240.377 299.142,239.653 M253.718,273.028 L235.261,278.287 C220.746,293.665 205.084,309.139 186.395,314.818 C166.148,320.969 149.321,313.914 129.687,308.219 L109.891,313.861 C140.769,317.508 161.933,334.044 189.646,325.624 C214.987,317.924 234.78,292.033 253.718,273.028 M109.891,313.861 C109.777,313.848 109.623,313.874 109.509,313.861 L129.208,308.124 C125.618,307.079 121.836,306.108 118.02,305.255 C116.825,304.991 115.608,304.819 114.386,304.585 C101.092,302.011 86.2061,301.298 67.91,306.307 C51.2413,310.87 41.2202,318.143 33.579,326.389 L36.3523,337.673 C37.3492,336.581 38.0335,335.379 39.1255,334.326 L44.0983,332.892 C51.0726,326.861 60.0445,321.636 73.074,318.069 C85.8136,314.582 96.8641,313.978 106.927,314.722 L109.891,313.861 M312.052,282.017 C305.691,281.776 298.694,282.506 291.492,284.694 C280.951,287.897 270.936,296.982 260.508,307.741 C258.194,310.129 255.784,312.595 253.431,315.105 C252.093,316.529 250.769,317.872 249.415,319.312 L268.254,313.861 C267.715,314.391 267.168,314.945 266.628,315.487 L271.027,314.148 C279.592,305.811 288.016,299.111 296.751,296.457 C311.164,292.078 324.212,293.715 333.76,296.457 L346.957,292.632 C346.957,292.632 345.343,292.382 343.61,292.058 L344.948,291.58 C344.948,291.58 331.136,282.74 312.052,282.017 M266.628,315.487 L248.171,320.747 C233.656,336.124 217.994,351.599 199.305,357.277 C179.058,363.429 162.231,356.373 142.597,350.679 L122.801,356.225 C153.679,359.871 174.843,376.408 202.556,367.988 C227.897,360.288 247.69,334.492 266.628,315.487 M122.801,356.225 C122.687,356.212 122.533,356.238 122.419,356.225 L142.023,350.487 C138.432,349.443 134.746,348.568 130.93,347.714 C129.735,347.45 128.518,347.183 127.296,346.949 C114.002,344.375 99.0205,343.662 80.7243,348.67 C63.4818,353.391 53.2597,361.01 45.5327,369.613 C45.2088,369.973 44.8835,370.305 44.5764,370.665 L47.5409,382.236 C49.0931,380.408 50.2418,378.42 52.0355,376.69 L57.0082,375.255 C63.9826,369.225 72.9544,364 85.9839,360.433 C98.7236,356.945 109.774,356.341 119.837,357.086 L122.801,356.225 Z" style="stroke:none;fill-rule:evenodd;fill:#000000;fill-opacity:0.501961;"/>
        </g>
    </g>
</svg>
